<svg xmlns="http://www.w3.org/2000/svg" viewBox="0 0 9600 4800">
<path fill="#d52b1e" d="M0 0h2400l99 99h4602l99-99h2400v4800H7200l-99-99H2499l-99 99H0z"/>
<path fill="#d52b1e" d="M4800 4331 l-267.5-94.8c-21.3-7.5-25.2-13.3-12.6-23.4 13.7-11 133-80.7 133.1-80.8 45.8-27.4 47.3-33.6 36.6-44.4-9.1-9.1-24.8-2.6-36.7 3.8-18.3 9.8-29.6-2-16.9-15.5 13.5-14.4 91.3-92.2 92.3-93.2 30.3-30.3 23-50-13.8-36.2-20 7.6-36.3-11.1-20-33.6 16.3-22.6 65.7-80.8 67.5-82.9 12.5-14.5 9.4-21.3-9.4-9.4l-122.8 77.6c-16.3 10.4-31.2-2.8-22.5-25.6l42.5-110.9c3.8-10-5-21.3-17.5-12.5l-90 62.5c-12.5 7.5-25 0-19.4-20.6l60.6-218.8c4.4-16.3-2.5-16.9-13.8-8.1l-169.4 129.4c-13.8 10-21.9-2.5-18.1-20l39.4-203.1c3.8-18.8-5-25-18.1-12.5l-113.1 108.8c-10 9.4-21.9 10-16.9-10l29.5-128.5c4.3-18.8-8.1-23.8-18.1-13.8l-103.1 103.1c-10 10-18.8 7.5-15.6-7.5l17.5-82.5c3.8-17.5-10-21.3-20-11.3l-77.6 77.6c-10 10-18.1 6.3-15.6-10l23.8-150c3.8-23.8-13.8-26.9-22.5-13.8l-54.4 81.3c-12.5 18.8-28.8 10-25-13.8l25.6-162.5c3.1-20-15-25.6-25-3.8l-51.9 113.8c-7.5 16.3-21.9 13.8-21.9-10V740c0-42.5-23.8-42.5-23.8 0v395c0 23.8-14.4 26.3-21.9 10L4532.5 1031.3c-10-21.9-28.1-16.3-25 3.8l25.6 162.5c3.8 23.8-12.5 32.5-25 13.8L4453.8 1130c-8.8-13.1-26.3-10-22.5 13.8l23.8 150c2.5 16.3-5.6 20-15.6 10l-77.6-77.6c-10-10-23.8-6.3-20 11.3l17.5 82.5c3.1 20-6.3 17.5-15.6 7.5l-103.1-103.1c-10-10-22.5-5-18.1 13.8l29.5 128.5c5 20-6.9 19.4-16.9 10l-113.1-108.8c-13.1-12.5-21.9-6.3-18.1 12.5l39.4 203.1c3.8 17.5-4.4 30-18.1 20l-169.4-129.4c-11.3-8.8-18.1-8.1-13.8 8.1l60.6 218.8c5.6 20.6-6.9 28.1-19.4 20.6l-90-62.5c-12.5-8.8-21.3 2.5-17.5 12.5l42.5 110.9c8.8 22.8-6.3 36-22.5 25.6l-122.8-77.6c-18.8-11.9-21.9-5-9.4 9.4 1.9 2.1 51.3 60.3 67.5 82.9 16.3 22.5 0 41.3-20 33.6-36.9-13.8-44.1 5.9-13.8 36.2 1 1 78.8 78.8 92.3 93.2 12.6 13.5 1.3 25.3-16.9 15.5-11.9-6.4-27.6-12.9-36.7-3.8-10.8 10.8-9.3 17 36.6 44.4.1.1 119.4 69.8 133.1 80.8 12.6 10.1 8.8 15.9-12.6 23.4L4800 4331z"/>
</svg>
